<svg version="1.2" xmlns="http://www.w3.org/2000/svg" viewBox="0 0 960 960" width="960" height="960">
	<title>autodesk-fusion-360-seeklogo-pdf</title>
	<style>
		.s0 { fill: #ffffff } 
		.s1 { fill: #ff6b00 } 
		.s2 { fill: #ff9447 } 
		.s3 { fill: #923b00 } 
	</style>
	<g id="Page 1">
		<path id="Path 1" fill-rule="evenodd" class="s0" d="m420.5 174.9c73.7 0 147.4-0.1 221.1 0-0.5 20.7 0.8 41.9-0.7 62.2-44.6 0.3-89.2 0.1-133.9 0.2 0.1 27.6-0.2 55.2 0.2 82.8 37.9-0.2 75.7-0.1 113.6-0.1v61.3c-37.9 0-75.8 0-113.8 0v139.7c-28.8 0-57.7 0.1-86.5 0zm-63.7 559.2c15.2-13.8 38.1-15.8 57.2-10.4 11.9 3.4 23.6 12.1 25.9 24.9 0.8 7.4 1.6 16-3.1 22.5-4.8 6.9-12.9 10.5-20.8 12.5 11.8 2.3 24.4 8.9 27.7 21.3 2.2 11.9 1.8 25.8-6.9 35.3-10.3 11.7-26.5 15.8-41.6 16.2-13.4-0.2-27.7-2.4-38.4-11.1-8.3-6.4-12.3-16.6-14.4-26.5 10.2-1 20.5-0.2 30.8-0.5 2.4 15 22.3 19.4 33.4 11 6.5-5.5 6.2-15.4 4.2-22.9-5.7-11.6-20.8-10.2-31.6-10.2q0-11 0-22c7.4-0.2 15.1 0.9 22.1-2.2 8.2-3.9 8.6-15.6 4.8-22.6-8.8-10.6-29.6-5.5-30.4 9.1-10.3 0.1-20.6 0.1-30.9-0.1 1.5-9 4.9-18.1 12-24.3z"/>
		<path id="Path 2" fill-rule="evenodd" class="s0" d="m481.7 727.7c16.3-8.6 36.4-8.4 53.6-2.3 13.3 4.8 22.4 18 22.7 32.1-9.5 0-19 0.1-28.5 0-1.9-15-23.3-17.4-32.7-8.2-7 8.5-4.3 20.1-4.8 30.2 17.4-16.6 50.6-13.8 63.4 7.3 5.8 9.2 5.9 20.6 5.2 31.1-1.1 15.1-12 28.4-25.9 33.9-16.3 6.5-35.5 6.4-51.6-0.9-13.5-6.1-22.6-20.2-23.2-34.9-0.3-16.6-0.2-33.3-0.1-49.9 0.1-15.4 8.1-30.9 21.9-38.4zm10.3 73.3c0.4 8.2-1.7 17.2 2.9 24.6 6.2 8.4 19.5 8.7 27.6 3.1 7.3-6.3 6.6-17.1 5.5-25.8-1-7.8-9.5-12.1-16.8-11-7.4 0.1-14 4-19.2 9.1zm121.6-78.4c16.1-3 34-1.9 48 7.3 12.5 8.4 17.7 23.9 17.4 38.4-0.2 15.9 0.4 31.7-0.3 47.6-1 15.5-10.5 30.7-25.5 36.2-18 6.7-39.5 6.2-56.1-3.8-12.7-7.6-19-22.5-19.1-36.9-0.1-13.7 0-27.3-0.1-41-0.1-11.2 1.9-23 9-32 6.5-8.5 16.4-13.7 26.7-15.8zm7.8 22.7c-7.6 2.5-10.8 11-11.1 18.4-0.3 15.1 0 30.3-0.1 45.4 0 7.3 1.1 15.9 7.5 20.4 8.9 5.4 23.6 3.7 27.2-7.2 3.5-11.9 1.2-24.5 1.9-36.7-0.6-11.2 1.9-23.2-3.1-33.7-4.1-7.9-14.6-9.4-22.3-6.6z"/>
		<path id="Path 3" fill-rule="evenodd" class="s1" d="m194.1 35.7c6.1 0.6 12.2 0.5 18.3 0.4 188.5 0 377.1 0 565.6 0 7.8 0.1 15.8-0.5 23.5 1.4 18.6 5 32.5 23.5 32.3 42.9 0.1 31.4 0 62.7 0 94.1 0 162.1 0.1 324.3 0 486.4-213.4 0.2-426.8-0.2-640.2 0.2 0-158.5 0-317.1 0-475.6 2.2-35.7 0.7-71.6 1.1-107.4-0.2-13.9 0.6-27.8-0.5-41.7zm226.3 139.2v346.1c28.9 0 57.7 0 86.6 0v-139.7c37.9-0.1 75.8 0 113.8-0.1v-61.2c-37.9 0-75.8-0.1-113.7 0.1-0.3-27.7 0-55.3-0.1-82.9 44.6-0.1 89.3 0.2 133.9-0.1 1.5-20.4 0.1-41.5 0.6-62.2-73.7-0.1-147.4 0-221.1 0z"/>
		<path id="Path 4" fill-rule="evenodd" class="s2" d="m174.7 46.9c6.4-3.6 12.3-8.5 19.5-10.5 1.1 13.9 0.3 27.8 0.5 41.7-0.4 35.8 1.1 71.7-1.1 107.4 0 158.5 0 317.1 0 475.6-20.6 12-40.9 24.7-61.4 36.8-24.5 14.9-49.1 29.6-73.6 44.4 0-208.3 0.1-416.7-0.1-625.1 38.5-23.8 77.5-46.8 116.2-70.3z"/>
		<path id="Path 5" fill-rule="evenodd" class="s3" d="m833.8 174.5c20.6 0 41.1 0 61.7 0 0 249.9 0 499.9 0 749.8-239.9 0-479.8 0-719.7-0.1-23.7 1-44.2-20.9-43.9-44.1 0.1-60.7-0.4-121.5 0.3-182.2 20.5-12.1 40.8-24.8 61.4-36.8 213.4-0.4 426.8 0 640.2-0.2 0.1-162.1 0-324.3 0-486.4zm-352.1 553.2c-13.8 7.5-21.8 23-21.9 38.4-0.1 16.6-0.2 33.3 0.1 49.9 0.6 14.7 9.7 28.8 23.2 34.9 16.1 7.3 35.3 7.4 51.6 0.9 13.9-5.5 24.8-18.8 25.9-33.9 0.7-10.5 0.6-21.9-5.2-31.1-12.8-21.1-46-23.9-63.4-7.3 0.5-10.1-2.2-21.7 4.8-30.2 9.4-9.2 30.8-6.9 32.7 8.2 9.5 0.1 19 0 28.5 0-0.3-14.1-9.4-27.3-22.8-32.1-17.1-6.1-37.2-6.3-53.5 2.3zm-124.9 6.4c-7.1 6.2-10.5 15.3-12 24.3 10.3 0.2 20.6 0.2 30.9 0.1 0.8-14.6 21.6-19.7 30.4-9.1 3.8 7 3.4 18.7-4.8 22.6-7 3.1-14.7 2-22.1 2.2q0 11 0 22c10.8 0 25.9-1.4 31.6 10.2 2 7.5 2.3 17.4-4.2 22.9-11.1 8.4-31 4-33.4-11-10.3 0.3-20.6-0.5-30.8 0.5 2.1 9.9 6.1 20.1 14.4 26.5 10.7 8.7 25 10.9 38.4 11.1 15.1-0.4 31.3-4.5 41.6-16.2 8.7-9.5 9.1-23.4 6.9-35.3-3.3-12.4-15.9-19-27.7-21.3 7.9-2 16-5.6 20.8-12.5 4.7-6.5 3.9-15.1 3.1-22.5-2.3-12.8-14-21.5-25.9-24.9-19.1-5.4-42-3.4-57.2 10.4zm256.8-11.5c-10.3 2.1-20.2 7.3-26.7 15.8-7.1 9-9.1 20.8-9 32 0.1 13.6 0 27.3 0.1 41 0.1 14.4 6.4 29.3 19.1 36.9 16.6 10 38.1 10.5 56.1 3.8 15-5.5 24.5-20.7 25.5-36.2 0.7-15.9 0.1-31.7 0.3-47.6 0.3-14.5-4.9-30-17.4-38.4-14-9.2-31.9-10.3-48-7.3zm7.8 22.7c7.7-2.8 18.2-1.3 22.3 6.6 5 10.5 2.5 22.5 3.1 33.7-0.7 12.2 1.6 24.8-1.9 36.7-3.6 10.9-18.3 12.6-27.2 7.2-6.4-4.5-7.5-13.1-7.5-20.4 0.1-15.1-0.2-30.3 0.1-45.4 0.3-7.4 3.5-15.9 11.1-18.4zm-129.4 55.7c5.2-5.1 11.8-9 19.2-9.1 7.3-1.1 15.8 3.2 16.8 11 1.1 8.7 1.8 19.5-5.5 25.8-8.1 5.6-21.4 5.3-27.6-3.1-4.6-7.4-2.5-16.4-2.9-24.6z"/>
	</g>
</svg>