<svg version="1.2" xmlns="http://www.w3.org/2000/svg" viewBox="0 0 240 234" width="240" height="234">
	<title>adobe-photoshop-seeklogo-svg</title>
	<style>
		.s0 { fill: #00005b } 
		.s1 { fill: #9999ff } 
	</style>
	<g id="Layer_2_1_">
		<g id="Surfaces">
			<g id="Photo_Surface">
				<g id="Outline_no_shadow">
				</g>
			</g>
		</g>
		<g id="Outlined_Mnemonics_Logos">
			<g id="Ps">
			</g>
			<g id="Layer">
				<path id="Layer" fill-rule="evenodd" class="s0" d="m42.5 0h155c23.5 0 42.5 19 42.5 42.5v149c0 23.5-19 42.5-42.5 42.5h-155c-23.5 0-42.5-19-42.5-42.5v-149c0-23.5 19-42.5 42.5-42.5z"/>
				<g id="Layer">
					<path id="Layer" fill-rule="evenodd" class="s1" d="m57 164.1v-102.9c0-0.7 0.3-1.1 1-1.1 1.7 0 3.3 0 5.6-0.1 2.4-0.1 4.9-0.1 7.6-0.2 2.7-0.1 5.6-0.1 8.7-0.2 3.1-0.1 6.1-0.1 9.1-0.1 8.2 0 15 1 20.6 3.1 5 1.7 9.6 4.5 13.4 8.2 3.2 3.2 5.7 7.1 7.3 11.4 1.5 4.2 2.3 8.5 2.3 13q0 12.9-6 21.3c-4 5.6-9.6 9.8-16.1 12.2-6.8 2.5-14.3 3.4-22.5 3.4-2.4 0-4 0-5-0.1-1-0.1-2.4-0.1-4.3-0.1v32.1c0.1 0.7-0.4 1.3-1.1 1.4h-19.4c-0.8 0-1.2-0.4-1.2-1.3zm21.8-84.7v33.6c1.4 0.1 2.7 0.2 3.9 0.2h5.3c3.9 0 7.8-0.6 11.5-1.8 3.2-0.9 6-2.8 8.2-5.3 2.1-2.5 3.1-5.9 3.1-10.3 0.1-3.1-0.7-6.2-2.3-8.9-1.7-2.6-4.1-4.6-7-5.7-3.7-1.5-7.7-2.1-11.8-2-2.6 0-4.9 0-6.8 0.1-2-0.1-3.4 0-4.1 0.1z"/>
					<path id="Layer" fill-rule="evenodd" class="s1" d="m146.6 85.2h17.5c1 0 1.8 0.7 2.1 1.6 0.3 0.8 0.5 1.6 0.6 2.5 0.2 1 0.4 2.1 0.5 3.1 0.1 1.1 0.2 2.3 0.2 3.6 3-3.5 6.6-6.4 10.7-8.6 4.6-2.6 9.9-3.9 15.2-3.9 0.7-0.1 1.3 0.4 1.4 1.1v19.9c0 0.8-0.5 1.1-1.6 1.1-3.6-0.1-7.3 0.2-10.8 1q-4.4 0.9-8.4 2.7c-1.9 0.9-3.7 2.1-5.1 3.7v51c0 1-0.4 1.4-1.3 1.4h-19.7c-0.8 0.1-1.5-0.4-1.6-1.2v-55.8c0-2.4 0-4.9-0.1-7.5-0.1-2.6-0.1-5.2-0.2-7.8 0-2.3-0.2-4.5-0.4-6.8-0.1-0.5 0.2-1 0.7-1.1 0-0.1 0.2-0.1 0.3 0z"/>
				</g>
			</g>
		</g>
	</g>
</svg>